<!DOCTYPE svg PUBLIC "-//W3C//DTD SVG 1.1//EN" "http://www.w3.org/Graphics/SVG/1.1/DTD/svg11.dtd">
<!-- Uploaded to: SVG Repo, www.svgrepo.com, Transformed by: SVG Repo Mixer Tools -->
<svg fill="#00383a" version="1.1" id="Capa_1" xmlns="http://www.w3.org/2000/svg" xmlns:xlink="http://www.w3.org/1999/xlink" width="64px" height="64px" viewBox="0 0 52.68 52.68" xml:space="preserve">
<g id="SVGRepo_bgCarrier" stroke-width="0"/>
<g id="SVGRepo_tracerCarrier" stroke-linecap="round" stroke-linejoin="round"/>
<g id="SVGRepo_iconCarrier"> <g> <g> <path d="M52.353,30.31c-1.029-2.223-4.032-2.727-5.534-2.836l-0.439,2.968c1.741,0.146,2.987,0.56,3.251,1.129 c0.182,0.394-0.167,1.052-0.39,1.41c-0.938,1.503-8.958-0.295-16.832-3.774l-1.213,2.743c3.673,1.625,10.913,4.517,15.896,4.517 c2.125,0,3.84-0.525,4.695-1.898C52.989,32.636,52.758,31.188,52.353,30.31z"/> <path d="M15.355,26.171c0.385,0.121,0.764,0.236,1.135,0.349c0.038,0.012,0.075,0.022,0.113,0.034 c0.361,0.107,0.716,0.213,1.059,0.313l-0.688,0.979l-0.823,1.172l9.252-0.545l-4.438-6.307l-1.474,2.097 C9.818,21.544,3.59,18.548,3,16.529c-0.161-0.638,0.236-1.141,0.628-1.318c0.522-0.239,1.903,0.26,2.523,0.649l1.44-2.469 c-0.289-0.185-2.957-1.922-5.19-0.918c-0.881,0.395-2.006,1.338-2.365,3.582c-0.677,4.236,8.316,7.914,15.312,10.112 C15.352,26.169,15.354,26.169,15.355,26.171z"/> <path d="M8.375,18.099c0.437-0.885,0.936-1.734,1.5-2.535c1.271,0.85,2.739,1.59,4.364,2.201 c-0.223,0.814-0.403,1.666-0.563,2.533c0.511,0.186,1.042,0.373,1.595,0.561c0.15-0.877,0.323-1.738,0.539-2.559 c1.473,0.451,3.06,0.787,4.714,1.016l0.441-0.627l0.526,0.748c0.94,0.102,1.894,0.18,2.874,0.203v3.881l1.677,2.383V19.64 c3.04-0.072,5.908-0.538,8.465-1.313c0.626,2.385,0.991,5.035,1.005,7.842h-9.284l0.811,1.152l0.369,0.523h3.415l0.564-1.278 l1.829,0.81c0.372,0.164,0.738,0.314,1.105,0.469h1.156c-0.008,0.158-0.023,0.31-0.032,0.465c0.552,0.222,1.096,0.433,1.632,0.631 c0.027-0.364,0.061-0.725,0.077-1.096h6.742c-0.083,1.043-0.264,2.06-0.512,3.047c0.593,0.142,1.145,0.258,1.653,0.351 c0.389-1.569,0.6-3.211,0.6-4.899c0-4.387-1.394-8.452-3.755-11.785c-0.311-0.439-0.636-0.868-0.98-1.28 c-3.752-4.502-9.396-7.373-15.701-7.373c-0.011,0-0.02,0.002-0.03,0.002c-0.007,0-0.012-0.002-0.018-0.002 c-0.024,0-0.046,0.004-0.07,0.004c-5.906,0.033-11.37,2.703-14.936,6.637c-1.466,1.598-2.748,3.564-3.185,4.879 C7.567,17.731,7.944,17.893,8.375,18.099z M43.958,26.169H37.19c-0.015-2.987-0.413-5.818-1.108-8.37 c1.66-0.617,3.158-1.37,4.451-2.234C42.653,18.573,43.922,22.223,43.958,26.169z M39.547,14.283 c-1.141,0.747-2.467,1.405-3.941,1.949c-1.085-3.222-2.669-5.902-4.577-7.722C34.385,9.611,37.321,11.639,39.547,14.283z M26.042,7.653c3.404,0.526,6.333,4.052,8,9.098c-2.403,0.712-5.117,1.143-8,1.213V7.653z M24.365,7.641v10.323 c-2.917-0.07-5.665-0.511-8.09-1.238C17.959,11.646,20.926,8.112,24.365,7.641z M19.23,8.562c-1.879,1.812-3.439,4.461-4.515,7.64 c-1.441-0.538-2.738-1.187-3.857-1.919C13.051,11.678,15.936,9.672,19.23,8.562z"/> <path d="M29.288,33.292c-1.059-0.129-2.136-0.225-3.247-0.25v-2.604l-0.521,0.03l-1.156,0.067v2.505 c-3.078,0.073-5.98,0.551-8.564,1.344c-0.276-1.051-0.498-2.158-0.664-3.306l-1.667,0.099c0.188,1.297,0.442,2.551,0.767,3.738 c-1.625,0.611-3.094,1.354-4.363,2.202c-1.88-2.667-3.09-5.838-3.364-9.272h6.643c0.026,0.602,0.069,1.193,0.126,1.779 l1.156-1.646c-1.886-0.595-3.588-1.199-5.146-1.812h-2.84c0.004-0.397,0.029-0.79,0.057-1.182 c-0.567-0.262-1.102-0.525-1.612-0.791c-0.074,0.707-0.126,1.419-0.126,2.145c0,4.387,1.395,8.451,3.756,11.783 c0.311,0.439,0.637,0.867,0.981,1.28c3.729,4.472,9.324,7.334,15.58,7.37c0.024,0,0.046,0.002,0.07,0.002c0.006,0,0.011,0,0.018,0 c0.01,0,0.02,0,0.03,0c6.304,0,11.949-2.87,15.701-7.371c0.344-0.412,0.67-0.842,0.98-1.281c0.07-0.098,0.13-0.203,0.198-0.303 c-4.316-0.961-8.884-2.801-11.696-4.045L29.288,33.292z M10.863,38.396c1.118-0.729,2.413-1.377,3.85-1.915 c1.076,3.18,2.638,5.826,4.517,7.638C15.936,43.009,13.056,41.001,10.863,38.396z M24.365,45.04 c-3.439-0.473-6.41-4.002-8.094-9.082c2.426-0.729,5.175-1.17,8.094-1.24V45.04z M39.544,38.397 c-2.226,2.645-5.159,4.674-8.517,5.773c1.908-1.82,3.495-4.498,4.58-7.721C37.08,36.993,38.405,37.651,39.544,38.397z M26.042,45.027v-10.31c2.883,0.07,5.599,0.502,8.004,1.213C32.38,40.979,29.446,44.501,26.042,45.027z"/> </g> </g> </g>
</svg>